<svg xmlns="http://www.w3.org/2000/svg"  viewBox="0 0 50 50" width="150px" height="150px"><path d="M 8.539063 9 L 1.6875 16.996094 L 7.328125 23.667969 C 7.535156 23.941406 7.785156 24.230469 8.117188 24.59375 L 25 44.546875 L 25.765625 43.644531 L 48.3125 16.996094 L 41.8125 9.414063 C 41.769531 9.347656 41.71875 9.285156 41.65625 9.234375 L 41.457031 9 Z M 9.460938 11 L 13.144531 11 C 10.609375 12.535156 7.730469 15.140625 6.371094 19.4375 L 4.3125 17.003906 Z M 25 11 C 32.800781 10.800781 33.898438 15.800781 34 16.199219 C 34.101563 16.800781 34.699219 17.199219 35.199219 17 L 41 17 C 41.601563 17 42 16.601563 42 16 L 42 12.703125 L 45.6875 17.003906 L 41.617188 21.8125 C 39.882813 17.800781 32.558594 17.800781 26 17.800781 C 19.800781 17.800781 16 17.699219 16 15.800781 C 16 16 16.199219 11.199219 25 11 Z M 32.558594 11 L 36.222656 11 C 35.746094 11.824219 35.269531 12.664063 34.902344 13.402344 C 34.390625 12.613281 33.632813 11.753906 32.558594 11 Z M 12.1875 26.308594 C 16.121094 26.996094 22.628906 27 32 27 C 33.199219 27 34.101563 27.300781 34.5 27.800781 C 34.800781 28.300781 34.699219 28.902344 34.597656 29.402344 C 34.199219 30.601563 32.800781 32.199219 30.699219 33.097656 C 28.898438 33.800781 26.5 34 25.097656 34 L 24.902344 34 C 24.5 31.898438 23 29 19 29 C 17.066406 29 15.832031 29.402344 15.109375 29.765625 Z M 30.308594 35.179688 L 25 41.453125 L 19.914063 35.441406 C 20.949219 35.652344 22.253906 35.855469 23.800781 35.902344 L 24.597656 35.902344 C 25.710938 35.902344 28.128906 35.824219 30.308594 35.179688 Z"/></svg>